<?xml version="1.0" encoding="UTF-8" standalone="no"?>
<!DOCTYPE svg PUBLIC "-//W3C//DTD SVG 1.1//EN" "http://www.w3.org/Graphics/SVG/1.1/DTD/svg11.dtd">
<svg xmlns="http://www.w3.org/2000/svg" version="1.1" viewBox="0.00 0.00 740.00 230.00">
<g stroke-width="2.00" fill="none" stroke-linecap="butt">
<path stroke="#00000000" vector-effect="non-scaling-stroke" d="
  M 409.87 62.70
  A 41.63 41.63 0.0 0 0 368.24 21.07
  A 41.63 41.63 0.0 0 0 326.61 62.70
  A 41.63 41.63 0.0 0 0 368.24 104.33
  A 41.63 41.63 0.0 0 0 409.87 62.70"
/>
<path stroke="#00000000" vector-effect="non-scaling-stroke" d="
  M 543.93 137.24
  A 5.20 5.20 0.0 0 0 538.73 132.04
  A 5.20 5.20 0.0 0 0 533.53 137.24
  A 5.20 5.20 0.0 0 0 538.73 142.44
  A 5.20 5.20 0.0 0 0 543.93 137.24"
/>
<path stroke="#00000000" vector-effect="non-scaling-stroke" d="
  M 473.32 161.46
  C 449.90 168.15 451.88 132.48 476.51 143.73
  Q 477.25 144.07 477.25 143.26
  L 477.25 140.76
  Q 477.25 140.29 476.83 140.07
  C 456.15 129.40 442.84 157.34 461.23 164.82
  C 466.34 166.90 471.70 166.03 476.89 164.23
  Q 477.73 163.94 477.74 163.05
  L 477.79 152.64
  A 0.64 0.64 0.0 0 0 477.15 152.00
  L 469.25 152.00
  Q 468.50 152.00 468.50 152.75
  L 468.50 155.25
  Q 468.50 155.75 469.00 155.75
  L 473.55 155.75
  A 0.52 0.52 0.0 0 1 474.07 156.31
  L 473.74 160.94
  Q 473.72 161.34 473.32 161.46"
/>
<path stroke="#00000000" vector-effect="non-scaling-stroke" d="
  M 214.75 158.28
  L 214.75 138.75
  Q 214.75 138.00 214.00 138.00
  L 211.62 138.00
  A 0.62 0.62 0.0 0 0 211.00 138.62
  L 211.00 164.08
  A 2.06 2.06 0.0 0 0 214.69 165.33
  L 222.48 155.23
  A 0.52 0.52 0.0 0 1 223.28 155.21
  L 232.16 165.36
  A 1.14 1.14 0.0 0 0 233.02 165.75
  L 236.47 165.75
  Q 237.51 165.75 236.83 164.97
  L 225.74 152.25
  Q 225.40 151.86 225.72 151.46
  L 235.99 138.66
  Q 236.52 138.00 235.67 138.00
  L 232.28 138.00
  A 1.27 1.26 -70.7 0 0 231.29 138.48
  L 215.26 158.46
  A 0.29 0.29 0.0 0 1 214.75 158.28"
/>
<path stroke="#00000000" vector-effect="non-scaling-stroke" d="
  M 252.07 162.04
  A 0.32 0.32 0.0 0 1 251.75 161.72
  L 251.75 153.82
  A 0.32 0.32 0.0 0 1 252.07 153.50
  L 262.68 153.50
  A 0.32 0.32 0.0 0 0 263.00 153.18
  L 263.00 150.32
  A 0.32 0.32 0.0 0 0 262.68 150.00
  L 252.07 150.00
  A 0.32 0.32 0.0 0 1 251.75 149.68
  L 251.75 141.82
  A 0.32 0.32 0.0 0 1 252.07 141.50
  L 262.99 141.50
  A 0.32 0.32 0.0 0 0 263.31 141.20
  L 263.45 138.34
  A 0.32 0.32 0.0 0 0 263.13 138.00
  L 248.07 138.00
  A 0.32 0.32 0.0 0 0 247.75 138.32
  L 247.75 165.18
  A 0.32 0.32 0.0 0 0 248.07 165.50
  L 263.43 165.50
  A 0.32 0.32 0.0 0 0 263.75 165.18
  L 263.75 162.30
  A 0.32 0.32 0.0 0 0 263.43 161.98
  L 252.07 162.04"
/>
<path stroke="#00000000" vector-effect="non-scaling-stroke" d="
  M 286.48 157.27
  A 0.30 0.30 0.0 0 1 285.93 157.27
  L 277.52 138.48
  Q 277.30 138.00 276.77 138.00
  L 274.16 138.00
  Q 273.36 138.00 273.69 138.73
  L 285.65 165.49
  A 0.71 0.70 44.7 0 0 286.94 165.49
  L 298.61 138.80
  Q 298.95 138.03 298.10 138.02
  L 295.78 137.99
  A 0.98 0.97 12.2 0 0 294.89 138.56
  L 286.48 157.27"
/>
<path stroke="#00000000" vector-effect="non-scaling-stroke" d="
  M 313.50 138.54
  A 0.54 0.54 0.0 0 0 312.96 138.00
  L 310.04 138.00
  A 0.54 0.54 0.0 0 0 309.50 138.54
  L 309.50 165.16
  A 0.54 0.54 0.0 0 0 310.04 165.70
  L 312.96 165.70
  A 0.54 0.54 0.0 0 0 313.50 165.16
  L 313.50 138.54"
/>
<path stroke="#00000000" vector-effect="non-scaling-stroke" d="
  M 348.16 158.58
  L 330.49 138.22
  A 1.99 1.99 0.0 0 0 327.00 139.53
  L 327.00 165.13
  Q 327.00 165.75 327.63 165.75
  L 330.01 165.75
  Q 330.77 165.75 330.77 164.99
  L 330.74 145.83
  A 0.59 0.59 0.0 0 1 331.78 145.45
  L 349.08 165.45
  Q 349.43 165.85 349.95 165.79
  L 352.23 165.54
  Q 352.75 165.48 352.75 164.96
  L 352.75 138.62
  Q 352.75 138.00 352.13 138.00
  L 349.53 138.00
  Q 349.06 138.00 349.05 138.47
  L 348.87 158.32
  Q 348.86 159.38 348.16 158.58"
/>
<path stroke="#00000000" vector-effect="non-scaling-stroke" d="
  M 387.00 158.51
  L 387.00 138.67
  Q 387.00 138.02 386.35 138.02
  L 383.88 137.99
  Q 383.25 137.99 383.25 138.62
  L 383.25 165.02
  Q 383.25 165.54 383.75 165.67
  C 385.60 166.17 386.58 165.83 387.77 164.27
  Q 390.90 160.16 394.71 155.35
  A 0.59 0.58 44.2 0 1 395.61 155.34
  L 404.25 165.28
  Q 404.66 165.75 405.28 165.75
  L 408.70 165.75
  Q 409.65 165.75 409.03 165.03
  L 398.04 152.37
  Q 397.64 151.91 398.02 151.43
  L 408.16 138.76
  Q 408.61 138.19 407.88 138.16
  L 404.48 138.04
  Q 403.90 138.02 403.53 138.47
  L 387.41 158.65
  A 0.23 0.23 0.0 0 1 387.00 158.51"
/>
<path stroke="#00000000" vector-effect="non-scaling-stroke" d="
  M 419.60 155.68
  C 419.87 169.84 443.17 169.49 443.23 155.49
  Q 443.27 147.06 443.24 138.57
  Q 443.24 137.99 442.66 137.99
  L 439.91 138.02
  Q 439.24 138.02 439.24 138.69
  Q 439.27 146.13 439.24 153.57
  C 439.22 158.67 438.08 161.55 432.77 162.17
  C 425.22 163.06 423.44 159.12 423.49 152.29
  Q 423.54 145.43 423.48 138.53
  Q 423.48 137.90 422.86 137.95
  L 420.12 138.15
  Q 419.52 138.19 419.52 138.79
  Q 419.44 147.24 419.60 155.68"
/>
<path stroke="#00000000" vector-effect="non-scaling-stroke" d="
  M 494.69 162.24
  A 0.44 0.44 0.0 0 1 494.25 161.80
  L 494.25 153.94
  A 0.44 0.44 0.0 0 1 494.69 153.50
  L 505.06 153.50
  A 0.44 0.44 0.0 0 0 505.50 153.06
  L 505.50 150.44
  A 0.44 0.44 0.0 0 0 505.06 150.00
  L 494.69 150.00
  A 0.44 0.44 0.0 0 1 494.25 149.56
  L 494.25 142.19
  A 0.44 0.44 0.0 0 1 494.69 141.75
  L 505.42 141.75
  A 0.44 0.44 0.0 0 0 505.86 141.33
  L 506.02 138.46
  A 0.44 0.44 0.0 0 0 505.58 138.00
  L 490.69 138.00
  A 0.44 0.44 0.0 0 0 490.25 138.44
  L 490.25 165.31
  A 0.44 0.44 0.0 0 0 490.69 165.75
  L 505.81 165.75
  A 0.44 0.44 0.0 0 0 506.25 165.31
  L 506.25 162.69
  A 0.44 0.44 0.0 0 0 505.81 162.25
  L 494.69 162.24"
/>
<path stroke="#00000000" vector-effect="non-scaling-stroke" d="
  M 522.01 162.25
  A 0.51 0.51 0.0 0 1 521.50 161.74
  L 521.50 138.50
  A 0.51 0.51 0.0 0 0 520.99 137.99
  L 518.01 138.02
  A 0.51 0.51 0.0 0 0 517.50 138.53
  L 517.50 165.24
  A 0.51 0.51 0.0 0 0 518.01 165.75
  L 533.49 165.75
  A 0.51 0.51 0.0 0 0 534.00 165.24
  L 534.00 162.76
  A 0.51 0.51 0.0 0 0 533.49 162.25
  L 522.01 162.25"
/>
<path stroke="#00000000" vector-effect="non-scaling-stroke" d="
  M 281.73 189.32
  C 271.75 184.03 264.07 198.12 273.74 202.19
  C 275.22 202.82 282.73 203.87 282.28 200.30
  A 0.53 0.52 -16.6 0 0 281.53 199.90
  C 267.91 206.63 268.99 184.48 281.43 191.37
  Q 281.83 191.59 282.08 191.20
  Q 282.87 189.93 281.73 189.32"
/>
<path stroke="#00000000" vector-effect="non-scaling-stroke" d="
  M 293.00 196.91
  A 0.41 0.41 0.0 0 1 293.41 196.50
  L 300.91 196.50
  A 0.41 0.41 0.0 0 1 301.32 196.93
  L 301.09 202.32
  A 0.41 0.41 0.0 0 0 301.50 202.75
  L 302.84 202.75
  A 0.41 0.41 0.0 0 0 303.25 202.34
  L 303.25 188.91
  A 0.41 0.41 0.0 0 0 302.84 188.50
  L 301.66 188.50
  A 0.41 0.41 0.0 0 0 301.25 188.91
  L 301.25 194.34
  A 0.41 0.41 0.0 0 1 300.84 194.75
  L 293.73 194.75
  A 0.41 0.41 0.0 0 1 293.32 194.37
  L 292.89 188.81
  A 0.41 0.41 0.0 0 0 292.53 188.44
  L 291.46 188.30
  A 0.41 0.41 0.0 0 0 291.00 188.71
  L 291.00 202.34
  A 0.41 0.41 0.0 0 0 291.41 202.75
  L 292.59 202.75
  A 0.41 0.41 0.0 0 0 293.00 202.34
  L 293.00 196.91"
/>
<path stroke="#00000000" vector-effect="non-scaling-stroke" d="
  M 327.4492 195.5121
  A 7.73 7.42 -0.8 0 0 319.6164 188.2007
  A 7.73 7.42 -0.8 0 0 311.9908 195.7279
  A 7.73 7.42 -0.8 0 0 319.8236 203.0393
  A 7.73 7.42 -0.8 0 0 327.4492 195.5121"
/>
<path stroke="#00000000" vector-effect="non-scaling-stroke" d="
  M 347.09 188.96
  C 331.85 183.88 332.17 207.94 347.60 202.18
  C 348.53 201.83 349.09 201.00 348.54 200.08
  Q 348.27 199.61 347.78 199.86
  C 335.34 206.29 333.82 185.49 347.94 191.32
  Q 348.48 191.54 348.54 190.96
  Q 348.68 189.49 347.09 188.96"
/>
<path stroke="#00000000" vector-effect="non-scaling-stroke" d="
  M 372.1277 195.4216
  A 7.71 7.43 -1.4 0 0 364.2385 188.1822
  A 7.71 7.43 -1.4 0 0 356.7123 195.7984
  A 7.71 7.43 -1.4 0 0 364.6015 203.0378
  A 7.71 7.43 -1.4 0 0 372.1277 195.4216"
/>
<path stroke="#00000000" vector-effect="non-scaling-stroke" d="
  M 402.96 188.75
  L 397.36 201.86
  A 0.88 0.88 0.0 0 0 398.84 202.77
  Q 400.07 201.28 400.56 199.29
  A 0.71 0.70 6.7 0 1 401.25 198.75
  L 406.51 198.75
  Q 407.06 198.75 407.28 199.25
  L 408.61 202.27
  Q 408.82 202.75 409.34 202.75
  L 410.36 202.75
  Q 411.06 202.75 410.78 202.11
  L 404.81 188.74
  A 1.01 1.01 0.0 0 0 402.96 188.75"
/>
<path stroke="#00000000" vector-effect="non-scaling-stroke" d="
  M 423.77 190.25
  L 427.43 190.25
  Q 428.04 190.25 428.16 189.65
  L 428.27 189.08
  Q 428.38 188.52 427.82 188.52
  L 416.92 188.41
  Q 416.25 188.40 416.25 189.08
  L 416.25 189.62
  Q 416.25 190.25 416.87 190.25
  L 420.62 190.25
  Q 421.25 190.25 421.25 190.87
  L 421.25 202.06
  Q 421.25 202.52 421.68 202.67
  Q 422.48 202.98 422.91 202.61
  Q 423.28 202.29 423.27 201.31
  Q 423.19 196.01 423.27 190.74
  Q 423.28 190.25 423.77 190.25"
/>
<path stroke="#00000000" vector-effect="non-scaling-stroke" d="
  M 448.10 202.20
  A 0.53 0.53 0.0 0 0 448.61 202.73
  Q 451.90 202.81 455.55 202.71
  Q 456.02 202.70 456.24 202.46
  Q 456.55 202.12 456.51 201.58
  A 0.61 0.61 0.0 0 0 455.90 201.01
  L 450.66 201.00
  A 0.66 0.66 0.0 0 1 450.01 200.35
  L 449.99 197.01
  Q 449.99 196.50 450.50 196.50
  L 455.28 196.50
  Q 456.01 196.50 455.93 195.77
  L 455.87 195.18
  Q 455.81 194.50 455.13 194.50
  L 450.66 194.50
  A 0.57 0.57 0.0 0 1 450.09 193.91
  L 450.15 191.04
  A 0.80 0.80 0.0 0 1 450.95 190.25
  L 455.50 190.25
  Q 456.25 190.25 456.25 189.50
  L 456.25 189.02
  Q 456.25 188.54 455.77 188.53
  L 448.55 188.43
  Q 447.95 188.42 447.96 189.01
  L 448.10 202.20"
/>
<path stroke="#00000000" vector-effect="non-scaling-stroke" d="
  M 466.77 202.26
  L 467.08 197.13
  A 0.73 0.73 0.0 0 1 468.21 196.56
  Q 471.35 198.65 472.88 202.19
  A 0.95 0.94 77.9 0 0 473.74 202.75
  L 475.25 202.75
  Q 475.90 202.75 475.54 202.22
  L 471.53 196.40
  Q 471.21 195.92 471.62 195.51
  L 472.35 194.77
  Q 472.69 194.43 472.85 193.97
  C 474.58 188.87 469.07 187.94 465.25 188.39
  Q 464.66 188.46 464.68 189.05
  L 464.95 202.23
  Q 464.96 202.75 465.48 202.75
  L 466.24 202.75
  Q 466.74 202.75 466.77 202.26"
/>
<path stroke="#00000000" vector-effect="non-scaling-stroke" d="
  M 383.02 200.51
  Q 382.95 195.17 383.01 189.83
  Q 383.01 189.06 382.72 188.73
  Q 382.20 188.11 381.15 188.75
  A 0.82 0.81 -15.7 0 0 380.75 189.45
  L 380.75 202.13
  Q 380.75 202.75 381.38 202.75
  L 388.97 202.75
  Q 389.73 202.75 389.50 202.02
  L 389.36 201.59
  Q 389.18 201.00 388.57 201.00
  L 383.52 201.00
  Q 383.03 201.00 383.02 200.51"
/>
<path stroke="#00000000" vector-effect="non-scaling-stroke" d="
  M 438.38 188.97
  A 0.45 0.45 0.0 0 0 437.93 188.52
  L 436.81 188.52
  A 0.45 0.45 0.0 0 0 436.36 188.97
  L 436.36 202.27
  A 0.45 0.45 0.0 0 0 436.81 202.72
  L 437.93 202.72
  A 0.45 0.45 0.0 0 0 438.38 202.27
  L 438.38 188.97"
/>
<path stroke="#00000000" vector-effect="non-scaling-stroke" d="
  M 406.07 62.70
  A 37.83 37.83 0.0 0 0 368.24 24.87
  A 37.83 37.83 0.0 0 0 330.41 62.70
  A 37.83 37.83 0.0 0 0 368.24 100.53
  A 37.83 37.83 0.0 0 0 406.07 62.70"
/>
<path stroke="#00000000" vector-effect="non-scaling-stroke" d="
  M 352.77 79.36
  Q 352.71 59.90 352.75 40.38
  C 352.75 38.78 352.01 37.43 350.13 37.90
  A 1.50 1.49 83.1 0 0 349.00 39.35
  L 349.00 85.31
  A 1.87 1.87 0.0 0 0 352.33 86.47
  L 368.08 66.54
  A 0.53 0.53 0.0 0 1 368.90 66.54
  Q 376.20 75.73 383.67 85.09
  C 384.31 85.89 384.98 86.96 385.99 87.18
  A 1.86 1.86 0.0 0 0 387.83 84.19
  L 371.20 63.45
  Q 370.86 63.03 371.20 62.61
  L 387.59 41.88
  A 1.84 1.82 48.2 0 0 387.70 39.77
  C 386.79 38.31 385.32 38.71 384.39 39.89
  Q 368.73 59.63 353.08 79.46
  A 0.17 0.17 0.0 0 1 352.77 79.36"
/>
<path stroke="#00000000" vector-effect="non-scaling-stroke" d="
  M 543.05 137.24
  A 4.30 4.30 0.0 0 0 538.75 132.94
  A 4.30 4.30 0.0 0 0 534.45 137.24
  A 4.30 4.30 0.0 0 0 538.75 141.54
  A 4.30 4.30 0.0 0 0 543.05 137.24"
/>
<path stroke="#00000000" vector-effect="non-scaling-stroke" d="
  M 537.96 137.67
  Q 539.44 138.02 539.94 139.49
  A 0.76 0.76 0.0 0 0 540.11 139.79
  Q 540.50 140.24 540.97 140.11
  A 0.40 0.40 0.0 0 0 541.11 139.40
  Q 539.42 138.13 540.70 136.64
  A 1.20 1.20 0.0 0 0 540.48 134.87
  Q 538.96 133.79 537.29 134.60
  A 0.95 0.94 -13.1 0 0 536.75 135.45
  L 536.75 139.28
  A 0.46 0.45 -26.7 0 0 537.57 139.55
  Q 538.00 138.97 537.53 138.31
  A 0.41 0.41 0.0 0 1 537.96 137.67"
/>
<path stroke="#00000000" vector-effect="non-scaling-stroke" d="
  M 539.9171 135.9256
  A 1.21 1.03 -4.0 0 0 538.6382 134.9825
  A 1.21 1.03 -4.0 0 0 537.5029 136.0944
  A 1.21 1.03 -4.0 0 0 538.7818 137.0375
  A 1.21 1.03 -4.0 0 0 539.9171 135.9256"
/>
<path stroke="#00000000" vector-effect="non-scaling-stroke" d="
  M 325.16 195.62
  A 5.44 5.44 0.0 0 0 319.72 190.18
  A 5.44 5.44 0.0 0 0 314.28 195.62
  A 5.44 5.44 0.0 0 0 319.72 201.06
  A 5.44 5.44 0.0 0 0 325.16 195.62"
/>
<path stroke="#00000000" vector-effect="non-scaling-stroke" d="
  M 369.79 195.62
  A 5.41 5.41 0.0 0 0 364.38 190.21
  A 5.41 5.41 0.0 0 0 358.97 195.62
  A 5.41 5.41 0.0 0 0 364.38 201.03
  A 5.41 5.41 0.0 0 0 369.79 195.62"
/>
<path stroke="#00000000" vector-effect="non-scaling-stroke" d="
  M 402.02 196.23
  A 0.39 0.39 0.0 0 0 402.38 196.76
  L 405.45 196.74
  A 0.39 0.39 0.0 0 0 405.80 196.20
  L 404.24 192.47
  A 0.39 0.39 0.0 0 0 403.52 192.47
  L 402.02 196.23"
/>
<path stroke="#00000000" vector-effect="non-scaling-stroke" d="
  M 467.00 190.80
  L 467.00 194.14
  A 0.55 0.55 0.0 0 0 467.55 194.69
  L 468.13 194.69
  A 2.87 2.04 0.1 0 0 471.00 192.65
  L 471.00 192.29
  A 2.87 2.04 0.1 0 0 468.13 190.25
  L 467.55 190.25
  A 0.55 0.55 0.0 0 0 467.00 190.80"
/>
</g>
<path fill="#00000000" d="
  M 0.00 0.00
  L 740.00 0.00
  L 740.00 230.00
  L 0.00 230.00
  L 0.00 0.00
  Z
  M 409.87 62.70
  A 41.63 41.63 0.0 0 0 368.24 21.07
  A 41.63 41.63 0.0 0 0 326.61 62.70
  A 41.63 41.63 0.0 0 0 368.24 104.33
  A 41.63 41.63 0.0 0 0 409.87 62.70
  Z
  M 543.93 137.24
  A 5.20 5.20 0.0 0 0 538.73 132.04
  A 5.20 5.20 0.0 0 0 533.53 137.24
  A 5.20 5.20 0.0 0 0 538.73 142.44
  A 5.20 5.20 0.0 0 0 543.93 137.24
  Z
  M 473.32 161.46
  C 449.90 168.15 451.88 132.48 476.51 143.73
  Q 477.25 144.07 477.25 143.26
  L 477.25 140.76
  Q 477.25 140.29 476.83 140.07
  C 456.15 129.40 442.84 157.34 461.23 164.82
  C 466.34 166.90 471.70 166.03 476.89 164.23
  Q 477.73 163.94 477.74 163.05
  L 477.79 152.64
  A 0.64 0.64 0.0 0 0 477.15 152.00
  L 469.25 152.00
  Q 468.50 152.00 468.50 152.75
  L 468.50 155.25
  Q 468.50 155.75 469.00 155.75
  L 473.55 155.75
  A 0.52 0.52 0.0 0 1 474.07 156.31
  L 473.74 160.94
  Q 473.72 161.34 473.32 161.46
  Z
  M 214.75 158.28
  L 214.75 138.75
  Q 214.75 138.00 214.00 138.00
  L 211.62 138.00
  A 0.62 0.62 0.0 0 0 211.00 138.62
  L 211.00 164.08
  A 2.06 2.06 0.0 0 0 214.69 165.33
  L 222.48 155.23
  A 0.52 0.52 0.0 0 1 223.28 155.21
  L 232.16 165.36
  A 1.14 1.14 0.0 0 0 233.02 165.75
  L 236.47 165.75
  Q 237.51 165.75 236.83 164.97
  L 225.74 152.25
  Q 225.40 151.86 225.72 151.46
  L 235.99 138.66
  Q 236.52 138.00 235.67 138.00
  L 232.28 138.00
  A 1.27 1.26 -70.7 0 0 231.29 138.48
  L 215.26 158.46
  A 0.29 0.29 0.0 0 1 214.75 158.28
  Z
  M 252.07 162.04
  A 0.32 0.32 0.0 0 1 251.75 161.72
  L 251.75 153.82
  A 0.32 0.32 0.0 0 1 252.07 153.50
  L 262.68 153.50
  A 0.32 0.32 0.0 0 0 263.00 153.18
  L 263.00 150.32
  A 0.32 0.32 0.0 0 0 262.68 150.00
  L 252.07 150.00
  A 0.32 0.32 0.0 0 1 251.75 149.68
  L 251.75 141.82
  A 0.32 0.32 0.0 0 1 252.07 141.50
  L 262.99 141.50
  A 0.32 0.32 0.0 0 0 263.31 141.20
  L 263.45 138.34
  A 0.32 0.32 0.0 0 0 263.13 138.00
  L 248.07 138.00
  A 0.32 0.32 0.0 0 0 247.75 138.32
  L 247.75 165.18
  A 0.32 0.32 0.0 0 0 248.07 165.50
  L 263.43 165.50
  A 0.32 0.32 0.0 0 0 263.75 165.18
  L 263.75 162.30
  A 0.32 0.32 0.0 0 0 263.43 161.98
  L 252.07 162.04
  Z
  M 286.48 157.27
  A 0.30 0.30 0.0 0 1 285.93 157.27
  L 277.52 138.48
  Q 277.30 138.00 276.77 138.00
  L 274.16 138.00
  Q 273.36 138.00 273.69 138.73
  L 285.65 165.49
  A 0.71 0.70 44.7 0 0 286.94 165.49
  L 298.61 138.80
  Q 298.95 138.03 298.10 138.02
  L 295.78 137.99
  A 0.98 0.97 12.2 0 0 294.89 138.56
  L 286.48 157.27
  Z
  M 313.50 138.54
  A 0.54 0.54 0.0 0 0 312.96 138.00
  L 310.04 138.00
  A 0.54 0.54 0.0 0 0 309.50 138.54
  L 309.50 165.16
  A 0.54 0.54 0.0 0 0 310.04 165.70
  L 312.96 165.70
  A 0.54 0.54 0.0 0 0 313.50 165.16
  L 313.50 138.54
  Z
  M 348.16 158.58
  L 330.49 138.22
  A 1.99 1.99 0.0 0 0 327.00 139.53
  L 327.00 165.13
  Q 327.00 165.75 327.63 165.75
  L 330.01 165.75
  Q 330.77 165.75 330.77 164.99
  L 330.74 145.83
  A 0.59 0.59 0.0 0 1 331.78 145.45
  L 349.08 165.45
  Q 349.43 165.85 349.95 165.79
  L 352.23 165.54
  Q 352.75 165.48 352.75 164.96
  L 352.75 138.62
  Q 352.75 138.00 352.13 138.00
  L 349.53 138.00
  Q 349.06 138.00 349.05 138.47
  L 348.87 158.32
  Q 348.86 159.38 348.16 158.58
  Z
  M 387.00 158.51
  L 387.00 138.67
  Q 387.00 138.02 386.35 138.02
  L 383.88 137.99
  Q 383.25 137.99 383.25 138.62
  L 383.25 165.02
  Q 383.25 165.54 383.75 165.67
  C 385.60 166.17 386.58 165.83 387.77 164.27
  Q 390.90 160.16 394.71 155.35
  A 0.59 0.58 44.2 0 1 395.61 155.34
  L 404.25 165.28
  Q 404.66 165.75 405.28 165.75
  L 408.70 165.75
  Q 409.65 165.75 409.03 165.03
  L 398.04 152.37
  Q 397.64 151.91 398.02 151.43
  L 408.16 138.76
  Q 408.61 138.19 407.88 138.16
  L 404.48 138.04
  Q 403.90 138.02 403.53 138.47
  L 387.41 158.65
  A 0.23 0.23 0.0 0 1 387.00 158.51
  Z
  M 419.60 155.68
  C 419.87 169.84 443.17 169.49 443.23 155.49
  Q 443.27 147.06 443.24 138.57
  Q 443.24 137.99 442.66 137.99
  L 439.91 138.02
  Q 439.24 138.02 439.24 138.69
  Q 439.27 146.13 439.24 153.57
  C 439.22 158.67 438.08 161.55 432.77 162.17
  C 425.22 163.06 423.44 159.12 423.49 152.29
  Q 423.54 145.43 423.48 138.53
  Q 423.48 137.90 422.86 137.95
  L 420.12 138.15
  Q 419.52 138.19 419.52 138.79
  Q 419.44 147.24 419.60 155.68
  Z
  M 494.69 162.24
  A 0.44 0.44 0.0 0 1 494.25 161.80
  L 494.25 153.94
  A 0.44 0.44 0.0 0 1 494.69 153.50
  L 505.06 153.50
  A 0.44 0.44 0.0 0 0 505.50 153.06
  L 505.50 150.44
  A 0.44 0.44 0.0 0 0 505.06 150.00
  L 494.69 150.00
  A 0.44 0.44 0.0 0 1 494.25 149.56
  L 494.25 142.19
  A 0.44 0.44 0.0 0 1 494.69 141.75
  L 505.42 141.75
  A 0.44 0.44 0.0 0 0 505.86 141.33
  L 506.02 138.46
  A 0.44 0.44 0.0 0 0 505.58 138.00
  L 490.69 138.00
  A 0.44 0.44 0.0 0 0 490.25 138.44
  L 490.25 165.31
  A 0.44 0.44 0.0 0 0 490.69 165.75
  L 505.81 165.75
  A 0.44 0.44 0.0 0 0 506.25 165.31
  L 506.25 162.69
  A 0.44 0.44 0.0 0 0 505.81 162.25
  L 494.69 162.24
  Z
  M 522.01 162.25
  A 0.51 0.51 0.0 0 1 521.50 161.74
  L 521.50 138.50
  A 0.51 0.51 0.0 0 0 520.99 137.99
  L 518.01 138.02
  A 0.51 0.51 0.0 0 0 517.50 138.53
  L 517.50 165.24
  A 0.51 0.51 0.0 0 0 518.01 165.75
  L 533.49 165.75
  A 0.51 0.51 0.0 0 0 534.00 165.24
  L 534.00 162.76
  A 0.51 0.51 0.0 0 0 533.49 162.25
  L 522.01 162.25
  Z
  M 281.73 189.32
  C 271.75 184.03 264.07 198.12 273.74 202.19
  C 275.22 202.82 282.73 203.87 282.28 200.30
  A 0.53 0.52 -16.6 0 0 281.53 199.90
  C 267.91 206.63 268.99 184.48 281.43 191.37
  Q 281.83 191.59 282.08 191.20
  Q 282.87 189.93 281.73 189.32
  Z
  M 293.00 196.91
  A 0.41 0.41 0.0 0 1 293.41 196.50
  L 300.91 196.50
  A 0.41 0.41 0.0 0 1 301.32 196.93
  L 301.09 202.32
  A 0.41 0.41 0.0 0 0 301.50 202.75
  L 302.84 202.75
  A 0.41 0.41 0.0 0 0 303.25 202.34
  L 303.25 188.91
  A 0.41 0.41 0.0 0 0 302.84 188.50
  L 301.66 188.50
  A 0.41 0.41 0.0 0 0 301.25 188.91
  L 301.25 194.34
  A 0.41 0.41 0.0 0 1 300.84 194.75
  L 293.73 194.75
  A 0.41 0.41 0.0 0 1 293.32 194.37
  L 292.89 188.81
  A 0.41 0.41 0.0 0 0 292.53 188.44
  L 291.46 188.30
  A 0.41 0.41 0.0 0 0 291.00 188.71
  L 291.00 202.34
  A 0.41 0.41 0.0 0 0 291.41 202.75
  L 292.59 202.75
  A 0.41 0.41 0.0 0 0 293.00 202.34
  L 293.00 196.91
  Z
  M 327.4492 195.5121
  A 7.73 7.42 -0.8 0 0 319.6164 188.2007
  A 7.73 7.42 -0.8 0 0 311.9908 195.7279
  A 7.73 7.42 -0.8 0 0 319.8236 203.0393
  A 7.73 7.42 -0.8 0 0 327.4492 195.5121
  Z
  M 347.09 188.96
  C 331.85 183.88 332.17 207.94 347.60 202.18
  C 348.53 201.83 349.09 201.00 348.54 200.08
  Q 348.27 199.61 347.78 199.86
  C 335.34 206.29 333.82 185.49 347.94 191.32
  Q 348.48 191.54 348.54 190.96
  Q 348.68 189.49 347.09 188.96
  Z
  M 372.1277 195.4216
  A 7.71 7.43 -1.4 0 0 364.2385 188.1822
  A 7.71 7.43 -1.4 0 0 356.7123 195.7984
  A 7.71 7.43 -1.4 0 0 364.6015 203.0378
  A 7.71 7.43 -1.4 0 0 372.1277 195.4216
  Z
  M 402.96 188.75
  L 397.36 201.86
  A 0.88 0.88 0.0 0 0 398.84 202.77
  Q 400.07 201.28 400.56 199.29
  A 0.71 0.70 6.7 0 1 401.25 198.75
  L 406.51 198.75
  Q 407.06 198.75 407.28 199.25
  L 408.61 202.27
  Q 408.82 202.75 409.34 202.75
  L 410.36 202.75
  Q 411.06 202.75 410.78 202.11
  L 404.81 188.74
  A 1.01 1.01 0.0 0 0 402.96 188.75
  Z
  M 423.77 190.25
  L 427.43 190.25
  Q 428.04 190.25 428.16 189.65
  L 428.27 189.08
  Q 428.38 188.52 427.82 188.52
  L 416.92 188.41
  Q 416.25 188.40 416.25 189.08
  L 416.25 189.62
  Q 416.25 190.25 416.87 190.25
  L 420.62 190.25
  Q 421.25 190.25 421.25 190.87
  L 421.25 202.06
  Q 421.25 202.52 421.68 202.67
  Q 422.48 202.98 422.91 202.61
  Q 423.28 202.29 423.27 201.31
  Q 423.19 196.01 423.27 190.74
  Q 423.28 190.25 423.77 190.25
  Z
  M 448.10 202.20
  A 0.53 0.53 0.0 0 0 448.61 202.73
  Q 451.90 202.81 455.55 202.71
  Q 456.02 202.70 456.24 202.46
  Q 456.55 202.12 456.51 201.58
  A 0.61 0.61 0.0 0 0 455.90 201.01
  L 450.66 201.00
  A 0.66 0.66 0.0 0 1 450.01 200.35
  L 449.99 197.01
  Q 449.99 196.50 450.50 196.50
  L 455.28 196.50
  Q 456.01 196.50 455.93 195.77
  L 455.87 195.18
  Q 455.81 194.50 455.13 194.50
  L 450.66 194.50
  A 0.57 0.57 0.0 0 1 450.09 193.91
  L 450.15 191.04
  A 0.80 0.80 0.0 0 1 450.95 190.25
  L 455.50 190.25
  Q 456.25 190.25 456.25 189.50
  L 456.25 189.02
  Q 456.25 188.54 455.77 188.53
  L 448.55 188.43
  Q 447.95 188.42 447.96 189.01
  L 448.10 202.20
  Z
  M 466.77 202.26
  L 467.08 197.13
  A 0.73 0.73 0.0 0 1 468.21 196.56
  Q 471.35 198.65 472.88 202.19
  A 0.95 0.94 77.9 0 0 473.74 202.75
  L 475.25 202.75
  Q 475.90 202.75 475.54 202.22
  L 471.53 196.40
  Q 471.21 195.92 471.62 195.51
  L 472.35 194.77
  Q 472.69 194.43 472.85 193.97
  C 474.58 188.87 469.07 187.94 465.25 188.39
  Q 464.66 188.46 464.68 189.05
  L 464.95 202.23
  Q 464.96 202.75 465.48 202.75
  L 466.24 202.75
  Q 466.74 202.75 466.77 202.26
  Z
  M 383.02 200.51
  Q 382.95 195.17 383.01 189.83
  Q 383.01 189.06 382.72 188.73
  Q 382.20 188.11 381.15 188.75
  A 0.82 0.81 -15.7 0 0 380.75 189.45
  L 380.75 202.13
  Q 380.75 202.75 381.38 202.75
  L 388.97 202.75
  Q 389.73 202.75 389.50 202.02
  L 389.36 201.59
  Q 389.18 201.00 388.57 201.00
  L 383.52 201.00
  Q 383.03 201.00 383.02 200.51
  Z
  M 438.38 188.97
  A 0.45 0.45 0.0 0 0 437.93 188.52
  L 436.81 188.52
  A 0.45 0.45 0.0 0 0 436.36 188.97
  L 436.36 202.27
  A 0.45 0.45 0.0 0 0 436.81 202.72
  L 437.93 202.72
  A 0.45 0.45 0.0 0 0 438.38 202.27
  L 438.38 188.97
  Z"
/>
<path fill="#ffffff" d="
  M 409.87 62.70
  A 41.63 41.63 0.0 0 1 368.24 104.33
  A 41.63 41.63 0.0 0 1 326.61 62.70
  A 41.63 41.63 0.0 0 1 368.24 21.07
  A 41.63 41.63 0.0 0 1 409.87 62.70
  Z
  M 406.07 62.70
  A 37.83 37.83 0.0 0 0 368.24 24.87
  A 37.83 37.83 0.0 0 0 330.41 62.70
  A 37.83 37.83 0.0 0 0 368.24 100.53
  A 37.83 37.83 0.0 0 0 406.07 62.70
  Z"
/>
<path fill="#00000000" d="
  M 406.07 62.70
  A 37.83 37.83 0.0 0 1 368.24 100.53
  A 37.83 37.83 0.0 0 1 330.41 62.70
  A 37.83 37.83 0.0 0 1 368.24 24.87
  A 37.83 37.83 0.0 0 1 406.07 62.70
  Z
  M 352.77 79.36
  Q 352.71 59.90 352.75 40.38
  C 352.75 38.78 352.01 37.43 350.13 37.90
  A 1.50 1.49 83.1 0 0 349.00 39.35
  L 349.00 85.31
  A 1.87 1.87 0.0 0 0 352.33 86.47
  L 368.08 66.54
  A 0.53 0.53 0.0 0 1 368.90 66.54
  Q 376.20 75.73 383.67 85.09
  C 384.31 85.89 384.98 86.96 385.99 87.18
  A 1.86 1.86 0.0 0 0 387.83 84.19
  L 371.20 63.45
  Q 370.86 63.03 371.20 62.61
  L 387.59 41.88
  A 1.84 1.82 48.2 0 0 387.70 39.77
  C 386.79 38.31 385.32 38.71 384.39 39.89
  Q 368.73 59.63 353.08 79.46
  A 0.17 0.17 0.0 0 1 352.77 79.36
  Z"
/>
<path fill="#ffffff" d="
  M 352.77 79.36
  A 0.17 0.17 0.0 0 0 353.08 79.46
  Q 368.73 59.63 384.39 39.89
  C 385.32 38.71 386.79 38.31 387.70 39.77
  A 1.84 1.82 48.2 0 1 387.59 41.88
  L 371.20 62.61
  Q 370.86 63.03 371.20 63.45
  L 387.83 84.19
  A 1.86 1.86 0.0 0 1 385.99 87.18
  C 384.98 86.96 384.31 85.89 383.67 85.09
  Q 376.20 75.73 368.90 66.54
  A 0.53 0.53 0.0 0 0 368.08 66.54
  L 352.33 86.47
  A 1.87 1.87 0.0 0 1 349.00 85.31
  L 349.00 39.35
  A 1.50 1.49 83.1 0 1 350.13 37.90
  C 352.01 37.43 352.75 38.78 352.75 40.38
  Q 352.71 59.90 352.77 79.36
  Z"
/>
<path fill="#ffffff" d="
  M 543.93 137.24
  A 5.20 5.20 0.0 0 1 538.73 142.44
  A 5.20 5.20 0.0 0 1 533.53 137.24
  A 5.20 5.20 0.0 0 1 538.73 132.04
  A 5.20 5.20 0.0 0 1 543.93 137.24
  Z
  M 543.05 137.24
  A 4.30 4.30 0.0 0 0 538.75 132.94
  A 4.30 4.30 0.0 0 0 534.45 137.24
  A 4.30 4.30 0.0 0 0 538.75 141.54
  A 4.30 4.30 0.0 0 0 543.05 137.24
  Z"
/>
<path fill="#00000000" d="
  M 543.05 137.24
  A 4.30 4.30 0.0 0 1 538.75 141.54
  A 4.30 4.30 0.0 0 1 534.45 137.24
  A 4.30 4.30 0.0 0 1 538.75 132.94
  A 4.30 4.30 0.0 0 1 543.05 137.24
  Z
  M 537.96 137.67
  Q 539.44 138.02 539.94 139.49
  A 0.76 0.76 0.0 0 0 540.11 139.79
  Q 540.50 140.24 540.97 140.11
  A 0.40 0.40 0.0 0 0 541.11 139.40
  Q 539.42 138.13 540.70 136.64
  A 1.20 1.20 0.0 0 0 540.48 134.87
  Q 538.96 133.79 537.29 134.60
  A 0.95 0.94 -13.1 0 0 536.75 135.45
  L 536.75 139.28
  A 0.46 0.45 -26.7 0 0 537.57 139.55
  Q 538.00 138.97 537.53 138.31
  A 0.41 0.41 0.0 0 1 537.96 137.67
  Z"
/>
<path fill="#ffffff" d="
  M 537.53 138.31
  Q 538.00 138.97 537.57 139.55
  A 0.46 0.45 -26.7 0 1 536.75 139.28
  L 536.75 135.45
  A 0.95 0.94 -13.1 0 1 537.29 134.60
  Q 538.96 133.79 540.48 134.87
  A 1.20 1.20 0.0 0 1 540.70 136.64
  Q 539.42 138.13 541.11 139.40
  A 0.40 0.40 0.0 0 1 540.97 140.11
  Q 540.50 140.24 540.11 139.79
  A 0.76 0.76 0.0 0 1 539.94 139.49
  Q 539.44 138.02 537.96 137.67
  A 0.41 0.41 0.0 0 0 537.53 138.31
  Z
  M 539.9171 135.9256
  A 1.21 1.03 -4.0 0 0 538.6382 134.9825
  A 1.21 1.03 -4.0 0 0 537.5029 136.0944
  A 1.21 1.03 -4.0 0 0 538.7818 137.0375
  A 1.21 1.03 -4.0 0 0 539.9171 135.9256
  Z"
/>
<ellipse fill="#00000000" cx="0.00" cy="0.00" transform="translate(538.71,136.01) rotate(-4.0)" rx="1.21" ry="1.03"/>
<path fill="#ffffff" d="
  M 473.74 160.94
  L 474.07 156.31
  A 0.52 0.52 0.0 0 0 473.55 155.75
  L 469.00 155.75
  Q 468.50 155.75 468.50 155.25
  L 468.50 152.75
  Q 468.50 152.00 469.25 152.00
  L 477.15 152.00
  A 0.64 0.64 0.0 0 1 477.79 152.64
  L 477.74 163.05
  Q 477.73 163.94 476.89 164.23
  C 471.70 166.03 466.34 166.90 461.23 164.82
  C 442.84 157.34 456.15 129.40 476.83 140.07
  Q 477.25 140.29 477.25 140.76
  L 477.25 143.26
  Q 477.25 144.07 476.51 143.73
  C 451.88 132.48 449.90 168.15 473.32 161.46
  Q 473.72 161.34 473.74 160.94
  Z"
/>
<path fill="#ffffff" d="
  M 214.75 158.28
  A 0.29 0.29 0.0 0 0 215.26 158.46
  L 231.29 138.48
  A 1.27 1.26 -70.7 0 1 232.28 138.00
  L 235.67 138.00
  Q 236.52 138.00 235.99 138.66
  L 225.72 151.46
  Q 225.40 151.86 225.74 152.25
  L 236.83 164.97
  Q 237.51 165.75 236.47 165.75
  L 233.02 165.75
  A 1.14 1.14 0.0 0 1 232.16 165.36
  L 223.28 155.21
  A 0.52 0.52 0.0 0 0 222.48 155.23
  L 214.69 165.33
  A 2.06 2.06 0.0 0 1 211.00 164.08
  L 211.00 138.62
  A 0.62 0.62 0.0 0 1 211.62 138.00
  L 214.00 138.00
  Q 214.75 138.00 214.75 138.75
  L 214.75 158.28
  Z"
/>
<path fill="#ffffff" d="
  M 252.07 162.04
  L 263.43 161.98
  A 0.32 0.32 0.0 0 1 263.75 162.30
  L 263.75 165.18
  A 0.32 0.32 0.0 0 1 263.43 165.50
  L 248.07 165.50
  A 0.32 0.32 0.0 0 1 247.75 165.18
  L 247.75 138.32
  A 0.32 0.32 0.0 0 1 248.07 138.00
  L 263.13 138.00
  A 0.32 0.32 0.0 0 1 263.45 138.34
  L 263.31 141.20
  A 0.32 0.32 0.0 0 1 262.99 141.50
  L 252.07 141.50
  A 0.32 0.32 0.0 0 0 251.75 141.82
  L 251.75 149.68
  A 0.32 0.32 0.0 0 0 252.07 150.00
  L 262.68 150.00
  A 0.32 0.32 0.0 0 1 263.00 150.32
  L 263.00 153.18
  A 0.32 0.32 0.0 0 1 262.68 153.50
  L 252.07 153.50
  A 0.32 0.32 0.0 0 0 251.75 153.82
  L 251.75 161.72
  A 0.32 0.32 0.0 0 0 252.07 162.04
  Z"
/>
<path fill="#ffffff" d="
  M 286.48 157.27
  L 294.89 138.56
  A 0.98 0.97 12.2 0 1 295.78 137.99
  L 298.10 138.02
  Q 298.95 138.03 298.61 138.80
  L 286.94 165.49
  A 0.71 0.70 44.7 0 1 285.65 165.49
  L 273.69 138.73
  Q 273.36 138.00 274.16 138.00
  L 276.77 138.00
  Q 277.30 138.00 277.52 138.48
  L 285.93 157.27
  A 0.30 0.30 0.0 0 0 286.48 157.27
  Z"
/>
<rect fill="#ffffff" x="309.50" y="138.00" width="4.00" height="27.70" rx="0.54"/>
<path fill="#ffffff" d="
  M 348.87 158.32
  L 349.05 138.47
  Q 349.06 138.00 349.53 138.00
  L 352.13 138.00
  Q 352.75 138.00 352.75 138.62
  L 352.75 164.96
  Q 352.75 165.48 352.23 165.54
  L 349.95 165.79
  Q 349.43 165.85 349.08 165.45
  L 331.78 145.45
  A 0.59 0.59 0.0 0 0 330.74 145.83
  L 330.77 164.99
  Q 330.77 165.75 330.01 165.75
  L 327.63 165.75
  Q 327.00 165.75 327.00 165.13
  L 327.00 139.53
  A 1.99 1.99 0.0 0 1 330.49 138.22
  L 348.16 158.58
  Q 348.86 159.38 348.87 158.32
  Z"
/>
<path fill="#ffffff" d="
  M 387.00 158.51
  A 0.23 0.23 0.0 0 0 387.41 158.65
  L 403.53 138.47
  Q 403.90 138.02 404.48 138.04
  L 407.88 138.16
  Q 408.61 138.19 408.16 138.76
  L 398.02 151.43
  Q 397.64 151.91 398.04 152.37
  L 409.03 165.03
  Q 409.65 165.75 408.70 165.75
  L 405.28 165.75
  Q 404.66 165.75 404.25 165.28
  L 395.61 155.34
  A 0.59 0.58 44.2 0 0 394.71 155.35
  Q 390.90 160.16 387.77 164.27
  C 386.58 165.83 385.60 166.17 383.75 165.67
  Q 383.25 165.54 383.25 165.02
  L 383.25 138.62
  Q 383.25 137.99 383.88 137.99
  L 386.35 138.02
  Q 387.00 138.02 387.00 138.67
  L 387.00 158.51
  Z"
/>
<path fill="#ffffff" d="
  M 443.23 155.49
  C 443.17 169.49 419.87 169.84 419.60 155.68
  Q 419.44 147.24 419.52 138.79
  Q 419.52 138.19 420.12 138.15
  L 422.86 137.95
  Q 423.48 137.90 423.48 138.53
  Q 423.54 145.43 423.49 152.29
  C 423.44 159.12 425.22 163.06 432.77 162.17
  C 438.08 161.55 439.22 158.67 439.24 153.57
  Q 439.27 146.13 439.24 138.69
  Q 439.24 138.02 439.91 138.02
  L 442.66 137.99
  Q 443.24 137.99 443.24 138.57
  Q 443.27 147.06 443.23 155.49
  Z"
/>
<path fill="#ffffff" d="
  M 494.69 162.24
  L 505.81 162.25
  A 0.44 0.44 0.0 0 1 506.25 162.69
  L 506.25 165.31
  A 0.44 0.44 0.0 0 1 505.81 165.75
  L 490.69 165.75
  A 0.44 0.44 0.0 0 1 490.25 165.31
  L 490.25 138.44
  A 0.44 0.44 0.0 0 1 490.69 138.00
  L 505.58 138.00
  A 0.44 0.44 0.0 0 1 506.02 138.46
  L 505.86 141.33
  A 0.44 0.44 0.0 0 1 505.42 141.75
  L 494.69 141.75
  A 0.44 0.44 0.0 0 0 494.25 142.19
  L 494.25 149.56
  A 0.44 0.44 0.0 0 0 494.69 150.00
  L 505.06 150.00
  A 0.44 0.44 0.0 0 1 505.50 150.44
  L 505.50 153.06
  A 0.44 0.44 0.0 0 1 505.06 153.50
  L 494.69 153.50
  A 0.44 0.44 0.0 0 0 494.25 153.94
  L 494.25 161.80
  A 0.44 0.44 0.0 0 0 494.69 162.24
  Z"
/>
<path fill="#ffffff" d="
  M 522.01 162.25
  L 533.49 162.25
  A 0.51 0.51 0.0 0 1 534.00 162.76
  L 534.00 165.24
  A 0.51 0.51 0.0 0 1 533.49 165.75
  L 518.01 165.75
  A 0.51 0.51 0.0 0 1 517.50 165.24
  L 517.50 138.53
  A 0.51 0.51 0.0 0 1 518.01 138.02
  L 520.99 137.99
  A 0.51 0.51 0.0 0 1 521.50 138.50
  L 521.50 161.74
  A 0.51 0.51 0.0 0 0 522.01 162.25
  Z"
/>
<path fill="#ffffff" d="
  M 273.74 202.19
  C 264.07 198.12 271.75 184.03 281.73 189.32
  Q 282.87 189.93 282.08 191.20
  Q 281.83 191.59 281.43 191.37
  C 268.99 184.48 267.91 206.63 281.53 199.90
  A 0.53 0.52 -16.6 0 1 282.28 200.30
  C 282.73 203.87 275.22 202.82 273.74 202.19
  Z"
/>
<path fill="#ffffff" d="
  M 293.00 196.91
  L 293.00 202.34
  A 0.41 0.41 0.0 0 1 292.59 202.75
  L 291.41 202.75
  A 0.41 0.41 0.0 0 1 291.00 202.34
  L 291.00 188.71
  A 0.41 0.41 0.0 0 1 291.46 188.30
  L 292.53 188.44
  A 0.41 0.41 0.0 0 1 292.89 188.81
  L 293.32 194.37
  A 0.41 0.41 0.0 0 0 293.73 194.75
  L 300.84 194.75
  A 0.41 0.41 0.0 0 0 301.25 194.34
  L 301.25 188.91
  A 0.41 0.41 0.0 0 1 301.66 188.50
  L 302.84 188.50
  A 0.41 0.41 0.0 0 1 303.25 188.91
  L 303.25 202.34
  A 0.41 0.41 0.0 0 1 302.84 202.75
  L 301.50 202.75
  A 0.41 0.41 0.0 0 1 301.09 202.32
  L 301.32 196.93
  A 0.41 0.41 0.0 0 0 300.91 196.50
  L 293.41 196.50
  A 0.41 0.41 0.0 0 0 293.00 196.91
  Z"
/>
<path fill="#ffffff" d="
  M 327.4492 195.5121
  A 7.73 7.42 -0.8 0 1 319.8236 203.0393
  A 7.73 7.42 -0.8 0 1 311.9908 195.7279
  A 7.73 7.42 -0.8 0 1 319.6164 188.2007
  A 7.73 7.42 -0.8 0 1 327.4492 195.5121
  Z
  M 325.16 195.62
  A 5.44 5.44 0.0 0 0 319.72 190.18
  A 5.44 5.44 0.0 0 0 314.28 195.62
  A 5.44 5.44 0.0 0 0 319.72 201.06
  A 5.44 5.44 0.0 0 0 325.16 195.62
  Z"
/>
<path fill="#ffffff" d="
  M 347.60 202.18
  C 332.17 207.94 331.85 183.88 347.09 188.96
  Q 348.68 189.49 348.54 190.96
  Q 348.48 191.54 347.94 191.32
  C 333.82 185.49 335.34 206.29 347.78 199.86
  Q 348.27 199.61 348.54 200.08
  C 349.09 201.00 348.53 201.83 347.60 202.18
  Z"
/>
<path fill="#ffffff" d="
  M 372.1277 195.4216
  A 7.71 7.43 -1.4 0 1 364.6015 203.0378
  A 7.71 7.43 -1.4 0 1 356.7123 195.7984
  A 7.71 7.43 -1.4 0 1 364.2385 188.1822
  A 7.71 7.43 -1.4 0 1 372.1277 195.4216
  Z
  M 369.79 195.62
  A 5.41 5.41 0.0 0 0 364.38 190.21
  A 5.41 5.41 0.0 0 0 358.97 195.62
  A 5.41 5.41 0.0 0 0 364.38 201.03
  A 5.41 5.41 0.0 0 0 369.79 195.62
  Z"
/>
<path fill="#ffffff" d="
  M 402.96 188.75
  A 1.01 1.01 0.0 0 1 404.81 188.74
  L 410.78 202.11
  Q 411.06 202.75 410.36 202.75
  L 409.34 202.75
  Q 408.82 202.75 408.61 202.27
  L 407.28 199.25
  Q 407.06 198.75 406.51 198.75
  L 401.25 198.75
  A 0.71 0.70 6.7 0 0 400.56 199.29
  Q 400.07 201.28 398.84 202.77
  A 0.88 0.88 0.0 0 1 397.36 201.86
  L 402.96 188.75
  Z
  M 402.02 196.23
  A 0.39 0.39 0.0 0 0 402.38 196.76
  L 405.45 196.74
  A 0.39 0.39 0.0 0 0 405.80 196.20
  L 404.24 192.47
  A 0.39 0.39 0.0 0 0 403.52 192.47
  L 402.02 196.23
  Z"
/>
<path fill="#ffffff" d="
  M 423.27 190.74
  Q 423.19 196.01 423.27 201.31
  Q 423.28 202.29 422.91 202.61
  Q 422.48 202.98 421.68 202.67
  Q 421.25 202.52 421.25 202.06
  L 421.25 190.87
  Q 421.25 190.25 420.62 190.25
  L 416.87 190.25
  Q 416.25 190.25 416.25 189.62
  L 416.25 189.08
  Q 416.25 188.40 416.92 188.41
  L 427.82 188.52
  Q 428.38 188.52 428.27 189.08
  L 428.16 189.65
  Q 428.04 190.25 427.43 190.25
  L 423.77 190.25
  Q 423.28 190.25 423.27 190.74
  Z"
/>
<path fill="#ffffff" d="
  M 448.10 202.20
  L 447.96 189.01
  Q 447.95 188.42 448.55 188.43
  L 455.77 188.53
  Q 456.25 188.54 456.25 189.02
  L 456.25 189.50
  Q 456.25 190.25 455.50 190.25
  L 450.95 190.25
  A 0.80 0.80 0.0 0 0 450.15 191.04
  L 450.09 193.91
  A 0.57 0.57 0.0 0 0 450.66 194.50
  L 455.13 194.50
  Q 455.81 194.50 455.87 195.18
  L 455.93 195.77
  Q 456.01 196.50 455.28 196.50
  L 450.50 196.50
  Q 449.99 196.50 449.99 197.01
  L 450.01 200.35
  A 0.66 0.66 0.0 0 0 450.66 201.00
  L 455.90 201.01
  A 0.61 0.61 0.0 0 1 456.51 201.58
  Q 456.55 202.12 456.24 202.46
  Q 456.02 202.70 455.55 202.71
  Q 451.90 202.81 448.61 202.73
  A 0.53 0.53 0.0 0 1 448.10 202.20
  Z"
/>
<path fill="#ffffff" d="
  M 467.08 197.13
  L 466.77 202.26
  Q 466.74 202.75 466.24 202.75
  L 465.48 202.75
  Q 464.96 202.75 464.95 202.23
  L 464.68 189.05
  Q 464.66 188.46 465.25 188.39
  C 469.07 187.94 474.58 188.87 472.85 193.97
  Q 472.69 194.43 472.35 194.77
  L 471.62 195.51
  Q 471.21 195.92 471.53 196.40
  L 475.54 202.22
  Q 475.90 202.75 475.25 202.75
  L 473.74 202.75
  A 0.95 0.94 77.9 0 1 472.88 202.19
  Q 471.35 198.65 468.21 196.56
  A 0.73 0.73 0.0 0 0 467.08 197.13
  Z
  M 467.00 190.80
  L 467.00 194.14
  A 0.55 0.55 0.0 0 0 467.55 194.69
  L 468.13 194.69
  A 2.87 2.04 0.1 0 0 471.00 192.65
  L 471.00 192.29
  A 2.87 2.04 0.1 0 0 468.13 190.25
  L 467.55 190.25
  A 0.55 0.55 0.0 0 0 467.00 190.80
  Z"
/>
<path fill="#ffffff" d="
  M 383.52 201.00
  L 388.57 201.00
  Q 389.18 201.00 389.36 201.59
  L 389.50 202.02
  Q 389.73 202.75 388.97 202.75
  L 381.38 202.75
  Q 380.75 202.75 380.75 202.13
  L 380.75 189.45
  A 0.82 0.81 -15.7 0 1 381.15 188.75
  Q 382.20 188.11 382.72 188.73
  Q 383.01 189.06 383.01 189.83
  Q 382.95 195.17 383.02 200.51
  Q 383.03 201.00 383.52 201.00
  Z"
/>
<rect fill="#ffffff" x="436.36" y="188.52" width="2.02" height="14.20" rx="0.45"/>
<circle fill="#00000000" cx="319.72" cy="195.62" r="5.44"/>
<circle fill="#00000000" cx="364.38" cy="195.62" r="5.41"/>
<path fill="#00000000" d="
  M 467.00 190.80
  A 0.55 0.55 0.0 0 1 467.55 190.25
  L 468.13 190.25
  A 2.87 2.04 0.1 0 1 471.00 192.29
  L 471.00 192.65
  A 2.87 2.04 0.1 0 1 468.13 194.69
  L 467.55 194.69
  A 0.55 0.55 0.0 0 1 467.00 194.14
  L 467.00 190.80
  Z"
/>
<path fill="#00000000" d="
  M 402.02 196.23
  L 403.52 192.47
  A 0.39 0.39 0.0 0 1 404.24 192.47
  L 405.80 196.20
  A 0.39 0.39 0.0 0 1 405.45 196.74
  L 402.38 196.76
  A 0.39 0.39 0.0 0 1 402.02 196.23
  Z"
/>
</svg>
